<svg width="49" height="52" viewBox="0 0 49 52" fill="none" xmlns="http://www.w3.org/2000/svg">
<path fill-rule="evenodd" clip-rule="evenodd" d="M26.2323 3.4446C25.7572 3.17952 25.1435 2.99995 24.1582 3.00097C23.1709 3.00199 22.556 3.18181 22.0801 3.4469C21.5876 3.72126 21.1269 4.15053 20.5331 4.85849C17.6856 8.84555 13.5588 16.2388 10.0007 23.2875C8.22128 26.8127 6.59831 30.2235 5.36431 33.0397C4.10621 35.9108 3.31662 38.0228 3.11619 39.025C2.68182 41.1969 3.51387 43.5584 5.22068 45.3575C6.92005 47.1488 9.34963 48.2311 11.8719 47.9789C14.2613 47.74 16.8264 46.1539 19.0047 44.3245C20.3408 43.2025 21.4437 42.0643 22.1599 41.2743C16.8616 35.2679 10.5779 20.6088 22.94 18.9955C23.7513 18.8896 24.562 18.8896 25.3733 18.9955C37.7354 20.6088 31.4517 35.2679 26.1533 41.2743C26.8696 42.0643 27.9725 43.2025 29.3086 44.3245C31.4868 46.1539 34.052 47.74 36.4414 47.9789C38.9636 48.2311 41.3932 47.1488 43.0926 45.3575C44.7994 43.5584 45.6315 41.1969 45.1971 39.025C44.9291 37.6851 43.9009 35.0809 42.3627 31.7338C40.8509 28.4441 38.9186 24.5874 36.9427 20.8202C34.9675 17.0544 32.9561 13.3919 31.2893 10.4931C29.5882 7.53456 28.3235 5.51032 27.8149 4.9001C27.2035 4.16637 26.7344 3.72469 26.2323 3.4446ZM24.1566 43.5375C24.9395 44.3849 26.0522 45.5086 27.3786 46.6226C29.6635 48.5415 32.8153 50.6322 36.1428 50.965C39.7243 51.3231 43.0322 49.7815 45.2697 47.4229C47.4998 45.0722 48.8041 41.7579 48.1398 38.4364C47.7916 36.6956 46.6043 33.7768 45.0895 30.4807C43.5484 27.1271 41.5904 23.2205 39.6003 19.4263C37.6094 15.6306 35.5793 11.9338 33.8909 8.99725C32.2368 6.12053 30.8326 3.8336 30.1203 2.97893C29.4321 2.15307 28.6805 1.37401 27.6944 0.823869C26.6813 0.258711 25.5392 -0.00143042 24.1551 5.91434e-06C22.7728 0.00144028 21.6321 0.261341 20.6197 0.825253C19.6336 1.37457 18.8819 2.15217 18.1929 2.97893L18.1578 3.02107L18.1259 3.06566C15.1339 7.24206 10.903 14.8405 7.32171 21.9352C5.52475 25.4951 3.877 28.9567 2.61565 31.8353C1.37839 34.6589 0.447998 37.064 0.173505 38.4364C-0.49079 41.7579 0.813461 45.0722 3.04355 47.4229C5.28108 49.7815 8.589 51.3231 12.1705 50.965C15.498 50.6322 18.6498 48.5415 20.9346 46.6226C22.2611 45.5086 23.3738 44.3849 24.1566 43.5375ZM24.1566 38.9964C27.7048 34.9206 34.4246 23.2031 24.985 21.9712C24.4331 21.8992 23.8807 21.8991 23.3283 21.9712C13.8887 23.2031 20.6085 34.9206 24.1566 38.9964Z" fill="white"/>
</svg>
