<svg width="29" height="55" viewBox="0 0 29 55" fill="none" xmlns="http://www.w3.org/2000/svg">
<path fill-rule="evenodd" clip-rule="evenodd" d="M11.0164 1.53898C10.71 0.619915 9.84992 0 8.88114 0H2.25072C1.00768 0 0 1.00768 0 2.25072V51.7666C0 53.0097 1.00768 54.0173 2.25072 54.0173H8.25265C9.49569 54.0173 10.5034 53.0097 10.5034 51.7666V31.5101L17.4928 52.4784C17.7991 53.3974 18.6592 54.0173 19.628 54.0173H26.2584C27.5015 54.0173 28.5092 53.0097 28.5092 51.7666V2.25072C28.5092 1.00768 27.5015 0 26.2584 0H20.2565C19.0135 0 18.0058 1.00768 18.0058 2.25072V22.5072L11.0164 1.53898ZM22.3572 2.85092C21.5285 2.85092 20.8567 3.5227 20.8567 4.3514V37.3014C20.8567 37.8121 20.141 37.9282 19.9795 37.4438L8.79054 3.8769C8.58631 3.26419 8.01292 2.85092 7.36706 2.85092H4.3514C3.5227 2.85092 2.85092 3.5227 2.85092 4.3514V49.6659C2.85092 50.4946 3.5227 51.1664 4.3514 51.1664H6.15197C6.98067 51.1664 7.65246 50.4946 7.65246 49.6659V16.7159C7.65246 16.2053 8.36817 16.0891 8.52965 16.5736L19.7186 50.1404C19.9228 50.7531 20.4962 51.1664 21.1421 51.1664H24.1578C24.9864 51.1664 25.6582 50.4946 25.6582 49.6659V4.3514C25.6582 3.5227 24.9864 2.85092 24.1578 2.85092H22.3572Z" fill="white"/>
</svg>
