<svg width="54" height="51" viewBox="0 0 54 51" fill="none" xmlns="http://www.w3.org/2000/svg">
<path d="M31.2112 30.4005C31.2112 32.0579 32.5548 33.4015 34.2122 33.4015C35.8696 33.4015 37.2132 32.0579 37.2132 30.4005C37.2132 28.7431 35.8696 27.3995 34.2122 27.3995C32.5548 27.3995 31.2112 28.7431 31.2112 30.4005Z" fill="white"/>
<path d="M18.9847 33.4015C17.3273 33.4015 15.9837 32.0579 15.9837 30.4005C15.9837 28.7431 17.3273 27.3996 18.9847 27.3996C20.642 27.3996 21.9856 28.7431 21.9856 30.4005C21.9856 32.0579 20.642 33.4015 18.9847 33.4015Z" fill="white"/>
<path d="M17.1207 38.4055C17.4817 37.8006 18.2647 37.603 18.8695 37.964C20.4619 38.9145 23.1608 39.6035 26.3339 39.6035C29.5069 39.6035 32.2059 38.9145 33.7982 37.964C34.403 37.603 35.186 37.8006 35.5471 38.4055C35.9081 39.0103 35.7105 39.7933 35.1056 40.1543C32.9956 41.4138 29.8001 42.1543 26.3339 42.1543C22.8677 42.1543 19.6721 41.4138 17.5621 40.1543C16.9573 39.7933 16.7597 39.0103 17.1207 38.4055Z" fill="white"/>
<path fill-rule="evenodd" clip-rule="evenodd" d="M44.2565 9.77604C46.9561 9.77604 49.1445 7.5876 49.1445 4.88802C49.1445 2.18844 46.9561 0 44.2565 0C42.4006 0 40.7862 1.03438 39.9585 2.5581C39.9628 2.55007 32.3767 0.710985 31.4215 0.498721C29.7736 0.13251 28.1479 1.19715 27.825 2.85413L25.2021 16.3114C19.2725 16.5006 13.8938 18.1688 9.80123 20.8014L8.96519 19.9654C6.91428 17.9145 3.5891 17.9145 1.53818 19.9654C-0.512727 22.0163 -0.512729 25.3415 1.53818 27.3924L2.83322 28.6874C2.22134 30.1849 1.89366 31.7664 1.89366 33.4015C1.89366 36.9446 3.43241 40.2363 6.06765 42.9667C10.1936 47.2417 17.0073 50.1412 24.8116 50.4769C25.315 50.4985 25.8226 50.5096 26.3338 50.5096C39.8317 50.5096 50.7739 42.85 50.7739 33.4015C50.7739 31.9043 50.4992 30.4519 49.983 29.0679L51.6585 27.3924C53.7094 25.3415 53.7094 22.0163 51.6585 19.9654C49.6076 17.9145 46.2824 17.9145 44.2315 19.9654L43.1861 21.0108C41.2523 19.7217 39.0171 18.6521 36.5621 17.8591C34.0008 17.0318 31.2002 16.5056 28.2529 16.3453L30.7705 3.42822L39.3894 5.34353C39.6192 7.82956 41.7105 9.77604 44.2565 9.77604ZM44.2565 7.22522C45.5473 7.22522 46.5937 6.17882 46.5937 4.88802C46.5937 3.59722 45.5473 2.55082 44.2565 2.55082C42.9657 2.55082 41.9193 3.59722 41.9193 4.88802C41.9193 6.17882 42.9657 7.22522 44.2565 7.22522ZM45.5826 22.8583C46.75 23.9012 47.7483 25.0414 48.5483 26.2586L49.5365 25.2704C50.4155 24.3914 50.4155 22.9663 49.5365 22.0874C48.6576 21.2084 47.2325 21.2084 46.3535 22.0874L45.5826 22.8583ZM3.66018 25.2704L4.33251 25.9427C5.16064 24.748 6.18154 23.6308 7.36691 22.6111L6.84319 22.0874C5.96423 21.2084 4.53915 21.2084 3.66019 22.0874C2.78122 22.9664 2.78122 24.3914 3.66018 25.2704ZM47.773 33.4015C47.773 36.8777 45.764 40.3317 41.8947 43.0402C38.0348 45.7422 32.5426 47.5086 26.3338 47.5086C20.1251 47.5086 14.6329 45.7422 10.773 43.0402C6.90367 40.3317 4.8947 36.8777 4.8947 33.4015C4.8947 29.9253 6.90367 26.4713 10.773 23.7627C14.6329 21.0608 20.1251 19.2944 26.3338 19.2944C32.5426 19.2944 38.0348 21.0608 41.8947 23.7627C45.764 26.4713 47.773 29.9253 47.773 33.4015Z" fill="white"/>
</svg>
