<svg width="91" height="91" viewBox="0 0 91 91" fill="none" xmlns="http://www.w3.org/2000/svg">
<path d="M19.7858 49.7424C20.0267 50.3775 20.3603 50.9205 20.7866 51.3715C21.2129 51.8225 21.7179 52.1676 22.3017 52.4069C22.8856 52.6462 23.5203 52.7658 24.2061 52.7658C24.8733 52.7658 25.4988 52.6415 26.0827 52.393C26.6665 52.1445 27.1761 51.7948 27.6117 51.3438C28.0472 50.8928 28.3855 50.3545 28.6264 49.7286C28.8674 49.1028 28.9878 48.4034 28.9878 47.6302V36.4526C28.9878 36.0383 29.3237 35.7024 29.7381 35.7024H31.1566C31.571 35.7024 31.9069 36.0383 31.9069 36.4526V54.2796C31.9069 54.694 31.571 55.0298 31.1566 55.0298H29.7659C29.3515 55.0298 29.0156 54.694 29.0156 54.2796V53.2351C28.3669 53.9162 27.6024 54.4408 26.722 54.809C25.8416 55.1771 24.8919 55.3612 23.8725 55.3612C22.8346 55.3612 21.8662 55.1817 20.9673 54.8227C20.0684 54.4638 19.29 53.9531 18.6321 53.2904C17.9742 52.6277 17.4552 51.8317 17.0752 50.9021C16.6953 49.9725 16.5053 48.9371 16.5053 47.7958V36.4526C16.5053 36.0383 16.8412 35.7024 17.2556 35.7024H18.6741C19.0885 35.7024 19.4244 36.0383 19.4244 36.4526V47.6302C19.4244 48.4034 19.5448 49.1074 19.7858 49.7424Z" fill="white"/>
<path fill-rule="evenodd" clip-rule="evenodd" d="M36.9387 36.4526C36.9387 36.0383 36.6028 35.7024 36.1884 35.7024H34.8811C34.4667 35.7024 34.1308 36.0383 34.1308 36.4526V54.2795C34.1308 54.6939 34.4667 55.0298 34.8811 55.0298H36.1606C36.575 55.0298 36.9109 54.6939 36.9109 54.2795V53.2627C37.5595 53.9069 38.3148 54.4177 39.1766 54.7951C40.0385 55.1724 40.9697 55.3611 41.9706 55.3611C43.0085 55.3611 43.9814 55.1679 44.8896 54.7813C45.7978 54.3948 46.5854 53.8702 47.2527 53.2075C47.9199 52.5449 48.4481 51.7672 48.8373 50.8744C49.2266 49.9817 49.4211 49.0291 49.4211 48.0168C49.4211 47.0044 49.2266 46.0472 48.8373 45.1452C48.4481 44.2433 47.9199 43.461 47.2527 42.7983C46.5854 42.1356 45.7978 41.611 44.8896 41.2245C43.9814 40.8379 43.0085 40.6447 41.9706 40.6447C40.9698 40.6447 40.0431 40.8333 39.1905 41.2107C38.338 41.5881 37.5874 42.0989 36.9387 42.7431V36.4526ZM38.3009 51.4681C37.8561 51.0263 37.5086 50.5109 37.2584 49.9219C37.0082 49.3329 36.8831 48.6978 36.8831 48.0168C36.8831 47.3357 37.0129 46.696 37.2723 46.0978C37.5318 45.4995 37.884 44.9796 38.3287 44.5378C38.7736 44.0961 39.2925 43.751 39.8856 43.5024C40.4787 43.2539 41.1088 43.1296 41.776 43.1296C42.4432 43.1296 43.0733 43.254 43.6664 43.5024C44.2595 43.7509 44.7738 44.0961 45.2094 44.5378C45.6449 44.9796 45.9924 45.4995 46.2519 46.0978C46.5114 46.696 46.6411 47.3357 46.6411 48.0168C46.6411 48.6978 46.5114 49.3329 46.2519 49.9219C45.9924 50.5109 45.6449 51.0264 45.2094 51.4681C44.7737 51.9099 44.2595 52.2596 43.6664 52.5173C43.0734 52.775 42.4433 52.9039 41.776 52.9039C41.0902 52.9039 40.4509 52.775 39.8577 52.5173C39.2647 52.2596 38.7457 51.9099 38.3009 51.4681Z" fill="white"/>
<path fill-rule="evenodd" clip-rule="evenodd" d="M52.5345 42.8398C51.8859 43.5117 51.3761 44.2893 51.0055 45.1729C50.6349 46.0564 50.4495 46.9952 50.4496 47.9891C50.4496 49.0383 50.6442 50.0094 51.0334 50.9021C51.4226 51.7948 51.9555 52.5724 52.6319 53.2351C53.3084 53.8978 54.1053 54.4133 55.0228 54.7814C55.9402 55.1495 56.9271 55.3336 57.9835 55.3336C59.2809 55.3336 60.4485 55.0667 61.4864 54.5329C62.2987 54.1152 63.0087 53.5734 63.6167 52.9076C63.898 52.5995 63.8252 52.1224 63.4889 51.8754L62.6682 51.2724C62.3369 51.029 61.8753 51.1024 61.5902 51.3985C60.6237 52.4021 59.4215 52.9039 57.9835 52.9039C57.3904 52.9039 56.8298 52.8027 56.3015 52.6002C55.7733 52.3978 55.3007 52.117 54.8837 51.7581C54.4667 51.3991 54.1192 50.9757 53.8412 50.488C53.5632 50.0003 53.3779 49.4711 53.2852 48.9004H64.0721C64.4865 48.9004 64.8224 48.5645 64.8224 48.1502V47.9893C64.8224 46.94 64.6463 45.9691 64.2942 45.0763C63.9421 44.1836 63.4509 43.4104 62.8208 42.757C62.1906 42.1036 61.44 41.5927 60.5689 41.2246C59.6978 40.8565 58.7526 40.6724 57.7332 40.6724C56.6954 40.6724 55.7316 40.8657 54.842 41.2522C53.9524 41.6388 53.1831 42.168 52.5345 42.8398ZM53.3408 46.6914C53.6002 45.6054 54.1238 44.7357 54.9115 44.0822C55.6992 43.4288 56.6212 43.1021 57.6777 43.1021C58.7341 43.1021 59.6561 43.4288 60.4438 44.0822C61.2315 44.7357 61.7458 45.6054 61.9868 46.6914H53.3408Z" fill="white"/>
<path d="M69.1869 47.0228C69.1869 45.9183 69.4835 45.044 70.0765 44.3997C70.6696 43.7555 71.4295 43.4334 72.3561 43.4333H72.7735C73.1879 43.4333 73.5238 43.0974 73.5238 42.6831V41.5882C73.5238 41.1738 73.1879 40.8379 72.7735 40.8379H72.5508C71.7723 40.8379 71.1004 41.0036 70.5352 41.335C69.9699 41.6663 69.5112 42.1173 69.159 42.6879V41.6987C69.159 41.2843 68.8231 40.9484 68.4088 40.9484H67.1292C66.7149 40.9484 66.379 41.2843 66.379 41.6987V54.2797C66.379 54.694 66.7149 55.0299 67.1292 55.0299H68.4367C68.851 55.0299 69.1869 54.694 69.1869 54.2797V47.0228Z" fill="white"/>
</svg>
