<svg width="58" height="40" viewBox="0 0 58 40" fill="none" xmlns="http://www.w3.org/2000/svg">
<path fill-rule="evenodd" clip-rule="evenodd" d="M22.8229 13.5876C22.8229 12.779 23.6981 12.2737 24.3984 12.6779L35.7987 19.2599C36.499 19.6642 36.499 20.6749 35.7987 21.0792L24.3984 27.6612C23.6981 28.0655 22.8229 27.5601 22.8229 26.7516V13.5876ZM32.8728 20.1696L25.0736 24.6724V15.6667L32.8728 20.1696Z" fill="white"/>
<path fill-rule="evenodd" clip-rule="evenodd" d="M48.7937 38.9226C52.725 38.581 55.9192 35.5999 56.3626 31.6788C56.792 27.881 57.0183 23.9365 57.0183 19.8901C57.0183 15.8437 56.792 11.8993 56.3626 8.10142C55.9192 4.18032 52.725 1.19918 48.7937 0.857588C42.3758 0.299926 35.565 0 28.5091 0C21.4532 0 14.6425 0.299919 8.22463 0.857572C4.29335 1.19916 1.09908 4.1803 0.655704 8.1014C0.226264 11.8993 0 15.8437 0 19.8901C0 23.9365 0.226264 27.881 0.655704 31.6788C1.09908 35.5999 4.29335 38.581 8.22463 38.9226C14.6425 39.4803 21.4532 39.7802 28.5091 39.7802C35.565 39.7802 42.3758 39.4803 48.7937 38.9226ZM54.0173 19.8901C54.0173 23.8251 53.7973 27.6569 53.3806 31.3416C53.1051 33.7788 51.108 35.7093 48.5339 35.9329C42.2049 36.4829 35.4809 36.7793 28.5091 36.7793C21.5373 36.7793 14.8133 36.4829 8.4844 35.9329C5.91036 35.7093 3.91324 33.7788 3.63766 31.3416C3.22102 27.6569 3.00096 23.8251 3.00096 19.8901C3.00096 15.9551 3.22102 12.1233 3.63766 8.43859C3.91324 6.00145 5.91036 4.07093 8.4844 3.84727C14.8133 3.29734 21.5373 3.00096 28.5091 3.00096C35.4809 3.00096 42.2049 3.29735 48.5339 3.84729C51.108 4.07095 53.1051 6.00146 53.3806 8.4386C53.7973 12.1233 54.0173 15.9551 54.0173 19.8901Z" fill="white"/>
</svg>
